<?xml version="1.0" encoding="utf-8"?>
<!-- Generator: Adobe Illustrator 25.1.0, SVG Export Plug-In . SVG Version: 6.00 Build 0)  -->
<svg version="1.2" baseProfile="tiny" id="matecloud"
	 xmlns="http://www.w3.org/2000/svg" xmlns:xlink="http://www.w3.org/1999/xlink" x="0px" y="0px" viewBox="0 0 145.2 90.5"
	 overflow="visible" xml:space="preserve">
<image width="5" height="5" xlink:href="5045D6C0C1BA4CF2.png"  transform="matrix(1 0 0 1 -0.6706 -0.6745)">
</image>
<g transform="translate(111.67499923706055,87.68949127197266)">
	<g transform="translate(28.325000762939453,0)">
		<rect x="-138" y="-85.7" fill="#333333" fill-opacity="0" width="141.2" height="86.5"/>
		<g>
			<g>
				<path fill="#36B0E2" d="M-8,0.8c-4.4,0-8.3-2.5-10.2-6.5l-29.7-64.1c-2.6-5.6-0.2-12.3,5.4-14.9c5.6-2.6,12.3-0.2,14.9,5.4l0,0
					L2.1-15.1C4.7-9.5,2.3-2.9-3.3-0.3C-4.8,0.4-6.4,0.8-8,0.8z"/>
				<path fill="#F05674" d="M-67.4,0.8c-6.2,0-11.2-5-11.2-11.2c0-1.6,0.4-3.2,1-4.7l29.7-64.1c2.6-5.6,9.2-8,14.9-5.4
					c5.6,2.6,8,9.2,5.4,14.9l0,0L-57.3-5.7C-59.1-1.8-63.1,0.8-67.4,0.8z"/>
				<path fill="#F7A400" d="M-67.4,0.8c-4.4,0-8.3-2.5-10.2-6.5l-29.7-64.1c-2.6-5.6-0.2-12.3,5.4-14.9c5.6-2.6,12.3-0.2,14.9,5.4
					l0,0l29.7,64.1c2.6,5.6,0.2,12.3-5.4,14.9C-64.2,0.4-65.8,0.8-67.4,0.8z"/>
				<path fill="#00CC8C" d="M-126.8,0.8c-6.2,0-11.2-5-11.2-11.2c0-1.6,0.4-3.2,1-4.7l29.7-64.1c2.6-5.6,9.2-8,14.9-5.4
					c5.6,2.6,8,9.2,5.4,14.9l0,0l-29.7,64.1C-118.5-1.8-122.5,0.8-126.8,0.8z"/>
			</g>
		</g>
	</g>
</g>
</svg>
